<svg xmlns="http://www.w3.org/2000/svg" width="162" height="48" viewBox="0 0 162 48" fill="none">
  <path d="M0 24C0 10.7452 10.7452 0 24 0H138C151.255 0 162 10.7452 162 24C162 37.2548 151.255 48 138 48H24C10.7452 48 0 37.2548 0 24Z" fill="url(#paint0_linear_12_1810)"/>
  <path d="M62.6623 26.4611L62.3599 26.6123C61.7551 27.0659 60.9991 27.3683 60.2431 27.3683C58.8066 27.3683 57.8238 26.1587 57.8238 24.3443C57.8238 22.5298 58.8066 21.3202 60.2431 21.3202C60.9991 21.3202 61.6795 21.6226 62.2087 22.0762L62.4355 22.2274H62.5111C62.5111 22.2274 62.5867 22.2274 62.5867 22.1518L62.8135 20.7154V20.6398L62.7379 20.5642C61.9819 20.035 61.1503 19.8082 60.2431 19.8838C57.8994 19.8838 56.2362 21.6982 56.2362 24.3443C56.2362 26.9903 57.8238 28.8047 60.2431 28.8047C61.1503 28.8047 62.0575 28.5023 62.8891 28.0487L62.9647 27.9731C62.9647 27.9731 63.0403 27.8975 62.9647 27.8975L62.7379 26.5367C62.7379 26.4611 62.7379 26.4611 62.6623 26.4611Z" fill="#EEEEEE"/>
  <path fill-rule="evenodd" clip-rule="evenodd" d="M68.1811 19.959H69.542C69.6932 19.959 69.6932 20.0346 69.6932 20.1102L73.0196 28.4263V28.5019H72.944L71.5076 28.8043L71.432 28.7287L70.4492 26.3095H67.1983L66.2911 28.5775C66.2911 28.6531 66.2155 28.6531 66.2155 28.6531H64.7791H64.7035V28.5775L68.1055 20.0346C68.1055 19.959 68.1811 19.959 68.1811 19.959ZM67.7278 24.8729H69.9202L68.7862 22.0001L67.7278 24.8729Z" fill="#EEEEEE"/>
  <path fill-rule="evenodd" clip-rule="evenodd" d="M81.2594 22.6807C81.335 23.7391 80.6546 24.7219 79.5962 25.0999L81.9398 28.1996V28.2752C81.9398 28.3508 81.8642 28.3508 81.8642 28.3508L80.3522 28.6532H80.2766L77.8574 25.3267H77.1014V28.502C77.1014 28.5776 77.1014 28.5776 77.0258 28.5776H75.5893C75.5137 28.5776 75.5137 28.5776 75.5137 28.502V20.1103C75.5137 20.0347 75.5893 20.0347 75.5893 20.0347H78.0086C79.9742 20.0347 81.2594 21.0931 81.2594 22.6807ZM78.0085 24.0411C79.0669 24.0411 79.6717 23.5875 79.6717 22.7559C79.6717 21.9243 79.1425 21.5463 78.0085 21.5463H77.1013V24.0411H78.0085Z" fill="#EEEEEE"/>
  <path fill-rule="evenodd" clip-rule="evenodd" d="M86.6277 19.959H87.9885C88.0174 19.9879 88.0463 20.0057 88.071 20.021C88.1109 20.0456 88.1397 20.0635 88.1397 20.1102L91.4662 28.4263V28.5019H91.3906L89.9542 28.8043L89.8786 28.7287L88.9713 26.3095H85.7205L84.8133 28.5775C84.8133 28.6531 84.7377 28.6531 84.7377 28.6531H83.3013H83.2257V28.5775L86.5521 20.0346C86.5521 19.959 86.6277 19.959 86.6277 19.959ZM86.1741 24.8729H88.3665L87.2325 22.0001L86.1741 24.8729Z" fill="#EEEEEE"/>
  <path d="M98.9508 20.1099H92.298C92.298 20.1099 92.2224 20.1099 92.2224 20.1855V21.4707C92.2224 21.5463 92.2224 21.5463 92.298 21.5463H94.8684V28.5772C94.8684 28.6528 94.8684 28.6528 94.944 28.6528H96.3804C96.456 28.6528 96.456 28.6528 96.456 28.5772V21.5463H99.102H99.1776V21.4707L99.0264 20.1855C99.0264 20.1099 99.0264 20.1099 98.9508 20.1099Z" fill="#EEEEEE"/>
  <path d="M106.057 27.2164H103.033V20.1855C103.033 20.1099 103.033 20.1099 102.958 20.1099H101.597C101.521 20.1099 101.521 20.1099 101.521 20.1855V28.5772C101.521 28.6528 101.521 28.6528 101.597 28.6528H106.284H106.36V28.5772L106.133 27.292C106.057 27.292 106.057 27.2164 106.057 27.2164Z" fill="#EEEEEE"/>
  <path fill-rule="evenodd" clip-rule="evenodd" d="M111.198 19.959H112.559V20.1102L115.885 28.4263V28.5019H115.81L114.449 28.8043C114.373 28.8043 114.373 28.7287 114.373 28.7287L113.466 26.3095H110.215L109.308 28.5775C109.308 28.6531 109.232 28.6531 109.232 28.6531H107.796H107.72V28.5775L111.122 20.0346C111.122 19.959 111.198 19.959 111.198 19.959ZM111.803 22.0001L110.745 24.8729H112.861L111.803 22.0001Z" fill="#EEEEEE"/>
  <path d="M124.882 20.1104H123.521C123.521 20.1104 123.445 20.1104 123.445 20.186V25.7805L119.59 20.1104H119.514H118.153C118.078 20.1104 118.078 20.1104 118.078 20.186V28.5777C118.078 28.6533 118.078 28.6533 118.153 28.6533H119.514C119.59 28.6533 119.59 28.6533 119.59 28.5777V22.6808L123.597 28.5777C123.597 28.5777 123.597 28.5777 123.672 28.5777H124.882C124.957 28.5777 124.957 28.5777 124.957 28.5021V20.186C124.957 20.186 124.957 20.1104 124.882 20.1104C124.882 20.0348 124.882 20.0348 124.882 20.1104Z" fill="#EEEEEE"/>
  <path d="M133.5 27.2164H129.72V24.9483H132.895H132.971V24.8727L132.744 23.5119L132.668 23.4363H129.644V21.4707H133.349C133.424 21.4707 133.424 21.3951 133.424 21.3951V20.1855C133.424 20.1099 133.424 20.1099 133.349 20.1099H128.132C128.057 20.1099 128.057 20.1099 128.057 20.1855V28.5772C128.057 28.6528 128.057 28.6528 128.132 28.6528H133.424C133.5 28.6528 133.5 28.6528 133.5 28.5772V27.2164Z" fill="#EEEEEE"/>
  <path fill-rule="evenodd" clip-rule="evenodd" d="M36.5634 14.3564L38.3985 13.5L40.1724 14.4175L38.3373 16.1914L36.5634 14.3564ZM33.9332 17.6595L35.8906 17.7818L37.1751 16.3138L34.9119 15.3351L33.9332 17.6595ZM40.9063 17.7814L39.5606 16.3134L41.885 15.3959L42.8637 17.6591L40.9063 17.7814ZM46.3504 18.4546H43.8425L43.7813 15.8855L45.6775 16.5583L46.3504 18.4546ZM36.9918 18.577L38.3987 19.2499L39.8055 18.577L38.3987 17.1702L36.9918 18.577ZM41.1511 19.1276L41.6404 20.5956L43.1085 21.0849V19.1276H41.1511ZM30.8139 22.6753L29.8352 20.412L32.1596 19.4333L32.282 21.3907L30.8139 22.6753ZM28 23.8985L28.8564 25.6724L30.6914 23.8374L28.8564 22.0635L28 23.8985ZM33.0769 25.3053L31.67 23.8984L33.0769 22.4916L33.7497 23.8984L33.0769 25.3053ZM30.8139 25.0609L29.8352 27.3241L32.0984 28.3028L32.2208 26.3454L30.8139 25.0609ZM35.5239 28.6084H33.5665V26.651L35.0345 27.1403L35.5239 28.6084ZM41.6404 27.2019L41.1511 28.6699H43.1085V26.7125L41.6404 27.2019ZM36.9303 29.1593L38.3372 28.5476L39.7441 29.1593L38.3372 30.5662L36.9303 29.1593ZM30.3855 29.3423L30.9972 31.2385L32.8934 31.8502V29.2811L30.3855 29.3423ZM45.6775 31.2389L43.7813 31.9117V29.3427H46.3504L45.6775 31.2389ZM35.8295 30.0154L33.8721 30.1377L34.8508 32.4009L37.1141 31.4223L35.8295 30.0154ZM39.5606 31.4223L40.8451 30.0154L42.8025 30.1377L41.8238 32.4009L39.5606 31.4223ZM38.3373 34.2361L36.5634 33.3797L38.3373 31.5447L40.1112 33.3797L38.3373 34.2361ZM35.0956 20.5956L33.6276 21.0849V19.1276H35.5849L35.0956 20.5956ZM31.0584 16.5583L30.3855 18.4546H32.9546V15.8855L31.0584 16.5583Z" fill="white"/>
  <defs>
    <linearGradient id="paint0_linear_12_1810" x1="80.0241" y1="17.9277" x2="80.1098" y2="48.0025" gradientUnits="userSpaceOnUse">
      <stop stop-color="#930083"/>
      <stop offset="1" stop-color="#6F0061"/>
    </linearGradient>
  </defs>
</svg>
